# xmcd
#
# Track frame offsets: 
#        150
#        19043
#        40853
#        59273
#        76653
#        100013
#        118835
#        137590
#        158663
#        172813
#        189153
#        204605
#
# Disc length: 2878 seconds
#
# Revision: 7
# Processed by: cddbd v1.5.2PL0 Copyright (c) Steve Scherf et al.
# Submitted via: ExactAudioCopyFreeDBPlugin 1.0
#
DISCID=8a0b3c0c
DTITLE=Various Artist - Didn't It Blow Your Mind!:  Soul Hits of the 
DTITLE='70s [Rhino series]
DYEAR=1991
DGENRE=SMB
TTITLE0=Barry White - I'm Gonna Love You Just a Little More Baby
TTITLE1=Love Unlimited - Walkin' in the Rain with the One I Love
TTITLE2=The Dells - Give Your Baby a Standing Ovation
TTITLE3=Billy Preston - Will it Go Round in Circles
TTITLE4=Fred Wesley and The J.B.'s - Doing it to Death
TTITLE5=Bloodstone - Natural High
TTITLE6=Don Covay - I Was Checkin' Out She Was Checkin' In
TTITLE7=Gladys Knight and The Pips - Midnight Train to Georgia
TTITLE8=The Pointer Sisters - Yes We Can Can
TTITLE9=Eddie Kendricks - Keep on Truckin'
TTITLE10=The Staple Singers - If You're Ready (Come Go with Me)
TTITLE11=Ann Peebles - I Can't Stand the Rain
EXTD=Label =Rhino R2 70551
EXTT0=
EXTT1=
EXTT2=
EXTT3=
EXTT4=
EXTT5=
EXTT6=
EXTT7=
EXTT8=
EXTT9=
EXTT10=
EXTT11=
PLAYORDER=
